<svg width="21" height="22" viewBox="0 0 21 22" fill="none" xmlns="http://www.w3.org/2000/svg">
<g clip-path="url(#clip0_1_59)">
<path d="M20.16 1.09998H0.84C0.375375 1.09998 0 1.47356 0 1.93598V21.164C0 21.6264 0.375375 22 0.84 22H20.16C20.6246 22 21 21.6264 21 21.164V1.93598C21 1.47356 20.6246 1.09998 20.16 1.09998ZM19.32 20.328H14.4874V13.9065H17.2174L17.6269 10.7532H14.4874V8.73892C14.4874 7.82455 14.742 7.20278 16.0571 7.20278H17.7345V4.38128C17.4431 4.34209 16.4482 4.25588 15.288 4.25588C12.8678 4.25588 11.2114 5.72671 11.2114 8.42543V10.7506H8.47612V13.9038H11.214V20.328H1.68V2.77198H19.32V20.328Z" fill="white"/>
</g>
<defs>
<clipPath id="clip0_1_59">
<rect width="21" height="22" fill="white"/>
</clipPath>
</defs>
</svg>
