<svg width="24" height="24" viewBox="0 0 24 24" fill="none" xmlns="http://www.w3.org/2000/svg">
<g clip-path="url(#clip0_1_55)">
<path d="M8.38 0H17.62C21.14 0 24 2.86 24 6.38V15.62C24 17.3121 23.3278 18.9349 22.1313 20.1313C20.9349 21.3278 19.3121 22 17.62 22H8.38C4.86 22 2 19.14 2 15.62V6.38C2 4.68792 2.67218 3.06514 3.86866 1.86866C5.06514 0.672177 6.68792 0 8.38 0ZM8.16 2.2C7.10974 2.2 6.1025 2.61721 5.35986 3.35986C4.61721 4.1025 4.2 5.10974 4.2 6.16V15.84C4.2 18.029 5.971 19.8 8.16 19.8H17.84C18.8903 19.8 19.8975 19.3828 20.6401 18.6401C21.3828 17.8975 21.8 16.8903 21.8 15.84V6.16C21.8 3.971 20.029 2.2 17.84 2.2H8.16ZM18.775 3.85C19.1397 3.85 19.4894 3.99487 19.7473 4.25273C20.0051 4.51059 20.15 4.86033 20.15 5.225C20.15 5.58967 20.0051 5.93941 19.7473 6.19727C19.4894 6.45513 19.1397 6.6 18.775 6.6C18.4103 6.6 18.0606 6.45513 17.8027 6.19727C17.5449 5.93941 17.4 5.58967 17.4 5.225C17.4 4.86033 17.5449 4.51059 17.8027 4.25273C18.0606 3.99487 18.4103 3.85 18.775 3.85ZM13 5.5C14.4587 5.5 15.8576 6.07946 16.8891 7.11091C17.9205 8.14236 18.5 9.54131 18.5 11C18.5 12.4587 17.9205 13.8576 16.8891 14.8891C15.8576 15.9205 14.4587 16.5 13 16.5C11.5413 16.5 10.1424 15.9205 9.11091 14.8891C8.07946 13.8576 7.5 12.4587 7.5 11C7.5 9.54131 8.07946 8.14236 9.11091 7.11091C10.1424 6.07946 11.5413 5.5 13 5.5ZM13 7.7C12.1248 7.7 11.2854 8.04768 10.6665 8.66655C10.0477 9.28542 9.7 10.1248 9.7 11C9.7 11.8752 10.0477 12.7146 10.6665 13.3335C11.2854 13.9523 12.1248 14.3 13 14.3C13.8752 14.3 14.7146 13.9523 15.3335 13.3335C15.9523 12.7146 16.3 11.8752 16.3 11C16.3 10.1248 15.9523 9.28542 15.3335 8.66655C14.7146 8.04768 13.8752 7.7 13 7.7Z" fill="white"/>
</g>
<defs>
<clipPath id="clip0_1_55">
<rect width="24" height="24" fill="white"/>
</clipPath>
</defs>
</svg>
