<svg width="22" height="22" viewBox="0 0 22 22" fill="none" xmlns="http://www.w3.org/2000/svg">
<g clip-path="url(#clip0_1_53)">
<path d="M21.2344 2.19995L21.9678 2.15155C21.9583 2.00758 21.9065 1.86962 21.8189 1.75494C21.7314 1.64025 21.6119 1.55395 21.4756 1.50682C21.3392 1.45969 21.192 1.45384 21.0523 1.49C20.9126 1.52615 20.7867 1.60271 20.6903 1.71008L21.2344 2.19995ZM20.504 6.53981C20.504 6.34532 20.4268 6.1588 20.2893 6.02127C20.1517 5.88374 19.9652 5.80648 19.7707 5.80648C19.5762 5.80648 19.3897 5.88374 19.2522 6.02127C19.1146 6.1588 19.0374 6.34532 19.0374 6.53981H20.504ZM0.733378 18.3333V17.5999C0.575915 17.5998 0.422572 17.6502 0.296033 17.744C0.169494 17.8377 0.0764805 17.9696 0.0307512 18.1203C-0.014978 18.271 -0.0109936 18.4324 0.0421149 18.5806C0.0952234 18.7289 0.194635 18.8561 0.325644 18.9434L0.733378 18.3333ZM2.19711 2.19995L2.88498 1.94328C2.83499 1.80939 2.74697 1.69301 2.63173 1.60848C2.51649 1.52394 2.37906 1.47491 2.23633 1.46744C2.09361 1.45996 1.95181 1.49435 1.82837 1.56638C1.70492 1.63841 1.60522 1.74494 1.54151 1.87288L2.19711 2.19995ZM8.05498 15.3999L8.57418 15.9177C8.66227 15.8293 8.72635 15.7199 8.76037 15.5999C8.79438 15.4798 8.79721 15.3531 8.76857 15.2317C8.73994 15.1102 8.68079 14.9981 8.59673 14.9059C8.51266 14.8137 8.40646 14.7445 8.28818 14.7047L8.05498 15.3999ZM18.6502 3.62701L18.1075 4.11981L18.3715 4.41168L18.7602 4.35301L18.6502 3.62701ZM20.504 2.24835C20.5788 3.38941 20.5084 4.08168 20.3236 4.60381C20.1447 5.10981 19.8308 5.52635 19.2632 6.07048L20.2782 7.12941C20.9206 6.51341 21.4163 5.90915 21.7067 5.09368C21.9898 4.29288 22.0484 3.36595 21.9678 2.15155L20.504 2.24835ZM20.504 7.60755V6.53981H19.0374V7.60901H20.504V7.60755ZM10.252 6.66008V8.06661H11.7187V6.66008H10.252ZM10.252 8.06661V8.79995H11.7187V8.06661H10.252ZM15.4367 1.46661C14.7551 1.467 14.0802 1.60164 13.4506 1.86284C12.821 2.12405 12.249 2.5067 11.7673 2.98896C11.2856 3.47122 10.9036 4.04363 10.6431 4.67353C10.3826 5.30342 10.2487 5.97845 10.2491 6.66008H11.7158C11.7154 6.17093 11.8114 5.6865 11.9983 5.23446C12.1851 4.78241 12.4592 4.37162 12.8049 4.02553C13.1506 3.67945 13.5611 3.40486 14.0129 3.21744C14.4647 3.03003 14.949 2.93347 15.4382 2.93328V1.46661H15.4367ZM19.0359 7.60755C19.0374 13.9377 13.9143 19.0666 7.59738 19.0666V20.5333C14.7254 20.5333 20.504 14.7458 20.504 7.60755H19.0359ZM1.51071 2.45661C2.30858 4.58621 5.30058 8.79995 10.9854 8.79995V7.33328C6.12191 7.33328 3.55084 3.72528 2.88351 1.94328L1.51071 2.45661ZM1.54151 1.87288C0.00591078 4.94701 -0.230222 7.93021 0.885911 10.4705C1.99911 13.0034 4.39418 14.9511 7.82324 16.0951L8.28818 14.7047C5.12751 13.6487 3.12844 11.9298 2.22791 9.87941C1.33031 7.83635 1.46084 5.31808 2.85418 2.52701L1.54151 1.87288ZM7.53578 14.8822C6.65284 15.7666 3.99818 17.5999 0.733378 17.5999V19.0666C4.49684 19.0666 7.50498 16.9898 8.57418 15.9177L7.53578 14.8822ZM19.1943 3.13568C18.7201 2.60981 18.1407 2.18948 17.4936 1.90195C16.8466 1.61441 16.1463 1.46609 15.4382 1.46661V2.93328C16.4956 2.93328 17.4475 3.38941 18.1075 4.11981L19.1943 3.13568ZM18.7602 4.35301C19.9284 4.16215 20.9954 3.57483 21.7815 2.68981L20.6903 1.71008C20.1311 2.34183 19.3722 2.76271 18.5402 2.90248L18.7602 4.35301ZM0.325644 18.9434C2.73244 20.5479 5.25511 20.5333 7.59738 20.5333V19.0666C5.20671 19.0666 3.12698 19.0505 1.14111 17.7231L0.325644 18.9434Z" fill="white"/>
</g>
<defs>
<clipPath id="clip0_1_53">
<rect width="22" height="22" fill="white"/>
</clipPath>
</defs>
</svg>
